<?xml version="1.0" encoding="UTF-8"?>
<!-- Created with Inkscape (http://www.inkscape.org/) -->
<svg width="277.75mm" height="181.46mm" version="1.1" viewBox="0 0 277.75 181.46" xmlns="http://www.w3.org/2000/svg" xmlns:xlink="http://www.w3.org/1999/xlink">
 <defs>
  <linearGradient id="linearGradient4610" x1="661.74" x2="690.48" y1="359.81" y2="326.57" gradientUnits="userSpaceOnUse">
   <stop style="stop-color:#b62c1f" offset="0"/>
   <stop style="stop-color:#db3a2c" offset="1"/>
  </linearGradient>
  <linearGradient id="linearGradient4622" x1="719.39" x2="709.82" y1="323.8" y2="357.91" gradientUnits="userSpaceOnUse">
   <stop style="stop-color:#2dca30" offset="0"/>
   <stop style="stop-color:#24a026" offset="1"/>
  </linearGradient>
  <linearGradient id="linearGradient4630" x1="696.27" x2="696.45" y1="380.21" y2="370.93" gradientUnits="userSpaceOnUse">
   <stop style="stop-color:#c0aa16" offset="0"/>
   <stop style="stop-color:#d7c119" offset="1"/>
  </linearGradient>
  <linearGradient id="linearGradient4638" x1="734.87" x2="734.99" y1="362.42" y2="377.95" gradientUnits="userSpaceOnUse">
   <stop style="stop-color:#6833f2" offset="0"/>
   <stop style="stop-color:#3d0cbc" offset="1"/>
  </linearGradient>
 </defs>
 <g transform="translate(-556.14 -282.18)">
  <path d="m639.26 356.28c3.0161 10.246 13.191 14.737 21.297 13.327 8.106-1.4097 23.263-4.7197 28.977-10.77 5.714-6.05 10.192-8.94 10.239-27.211 0.0191-7.3644-0.84034-17.387-11.699-16.755-10.859 0.63228-17.763 2.4698-25.796 6.2507-8.0332 3.7809-16.338 11.657-20.008 17.123-3.6691 5.4661-4.2588 13.354-3.0098 18.035z" style="fill:url(#linearGradient4610);opacity:.7"/>
  <path d="m690.48 326.57c-3.9238 9.455-0.48268 23.061 2.1961 27.374 2.6788 4.3129 12.124 5.9305 20.377 5.8668 8.2526-0.0637 13.567-0.63021 20.998-3.6017 6.7989-2.7187 11.048-5.5066 6.5954-13.379-4.4532-7.8723-8.5011-12.404-14.603-17.135-6.1022-4.7313-15.817-9.0598-21.559-9.17-5.7419-0.11016-10.08 0.5905-14.004 10.046z" style="fill:url(#linearGradient4622);opacity:.8"/>
  <path d="m722.49 359.32c-2.066-3.8264-2.6245-4.7357-5.6554-6.1715-3.0308-1.4358-10.784-0.90326-24.085 1.5841s-26.891 6.8486-31.579 14.298c-4.2893 6.8155 7.4829 13.791 12.898 15.296 5.4152 1.5052 17.283 0.28836 27.915-2.3352 10.632-2.6236 14.295-3.8146 19.655-6.9757 5.3599-3.1612 2.9179-11.869 0.85186-15.695z" style="fill:url(#linearGradient4630);opacity:.6"/>
  <path d="m741.9 380.54c2.8248-2.2444 5.4998-4.2207 6.1559-10.159s-0.67639-16.014-2.534-19.267c-1.8576-3.2531-9.1965-2.417-15.553-0.25052-6.3569 2.1665-9.3403 8.107-10.42 16.852-1.0801 8.745 1.2967 10.28 7.2339 12.63s12.293 2.4389 15.118 0.19453z" style="fill:url(#linearGradient4638);opacity:.6"/>
  <path d="m608.91 411.17v20.507h-2.08v-16.406l-8.0565 13.799h-1.0254l-8.0564-13.711v16.318h-2.08v-20.507h1.7871l8.906 15.205 8.8182-15.205z" style="fill:#5b5645"/>
  <path d="m623.25 411.17h2.1679v20.507h-2.1679z" style="fill:#5b5645"/>
  <path d="m656.93 411.17v20.507h-1.7871l-13.183-16.64v16.64h-2.1679v-20.507h1.7871l13.213 16.64v-16.64z" style="fill:#5b5645"/>
  <path d="m671.26 411.17h8.3494q3.2519 0 5.742 1.3183 2.4902 1.289 3.8671 3.6327 1.3769 2.3144 1.3769 5.3026 0 2.9882-1.3769 5.3319-1.3769 2.3144-3.8671 3.6327-2.4902 1.289-5.742 1.289h-8.3494zm8.2322 18.632q2.6952 0 4.7167-1.0547 2.0214-1.084 3.1347-2.9589 1.1133-1.9043 1.1133-4.3651t-1.1133-4.3358q-1.1132-1.9043-3.1347-2.9589-2.0214-1.084-4.7167-1.084h-6.0643v16.757z" style="fill:#5b5645"/>
  <path d="m710.81 411.17q3.9257 0 6.1522 1.875t2.2265 5.1561q0 3.2812-2.2265 5.1561-2.2265 1.8457-6.1522 1.8457h-5.5077v6.4745h-2.1679v-20.507zm-0.0586 12.129q3.0468 0 4.6581-1.3183 1.6113-1.3476 1.6113-3.7792 0-2.4902-1.6113-3.8085-1.6113-1.3476-4.6581-1.3476h-5.4491v10.254z" style="fill:#5b5645"/>
  <path d="m731.86 411.17h2.1679v18.632h11.484v1.875h-13.652z" style="fill:#5b5645"/>
  <path d="m765.77 431.85q-3.0468 0-5.537-1.3476-2.4609-1.3769-3.8671-3.7499-1.3769-2.373-1.3769-5.3319 0-2.9589 1.3769-5.3319 1.4062-2.373 3.8671-3.7206 2.4902-1.3769 5.537-1.3769 3.0468 0 5.4784 1.3476 2.4609 1.3476 3.8671 3.7499 1.4062 2.373 1.4062 5.3319 0 2.9589-1.4062 5.3612-1.4062 2.373-3.8671 3.7206-2.4316 1.3476-5.4784 1.3476zm0-1.9336q2.4316 0 4.3944-1.084 1.9628-1.1132 3.0761-3.0468 1.1132-1.9628 1.1132-4.3651 0-2.4023-1.1132-4.3358-1.1133-1.9628-3.0761-3.0468-1.9628-1.1132-4.3944-1.1132-2.4316 0-4.4237 1.1132-1.9628 1.084-3.1054 3.0468-1.1132 1.9336-1.1132 4.3358 0 2.4023 1.1132 4.3651 1.1426 1.9336 3.1054 3.0468 1.9921 1.084 4.4237 1.084z" style="fill:#5b5645"/>
  <path d="m793.06 413.04h-7.2069v-1.875h16.582v1.875h-7.2069v18.632h-2.1679z" style="fill:#5b5645"/>
 </g>
</svg>
